Coordinates
version=1
nRows=13
nColumns=34
inDegrees=yes

Units are S.I. units (second, meters, Newtons, ...)
If the header above contains a line with 'inDegrees', this indicates whether rotational values are in degrees (yes) or radians (no).

endheader
time	pelvis_tilt	pelvis_list	pelvis_rotation	pelvis_tx	pelvis_ty	pelvis_tz	hip_flexion_r	hip_adduction_r	hip_rotation_r	knee_angle_r	ankle_angle_r	subtalar_angle_r	mtp_angle_r	hip_flexion_l	hip_adduction_l	hip_rotation_l	knee_angle_l	ankle_angle_l	subtalar_angle_l	mtp_angle_l	lumbar_extension	lumbar_bending	lumbar_rotation	arm_flex_r	arm_add_r	arm_rot_r	elbow_flex_r	pro_sup_r	arm_flex_l	arm_add_l	arm_rot_l	elbow_flex_l	pro_sup_l
      0.00000000	     -4.61412792	      0.50135785	      0.19235836	     -0.05200707	      1.30100826	     -0.08218147	      4.69168123	     -1.22300868	      3.30619998	      6.44058398	      6.47386239	    -10.53583489	      0.00000000	      5.76848730	      0.47589842	      3.20070590	      6.52368803	      5.03953551	     -6.18990006	      0.00000000	     -2.66708939	     -0.16782921	     -0.92265363	      2.52096429	     -5.79379991	      9.00281657	     25.92074685	     82.09618772	      1.16850135	     -7.88478159	     11.94675187	     20.25323964	     70.45744382
      0.01666670	     -5.79797932	     -0.02328582	      0.18905167	     -0.05151131	      1.29698261	     -0.08288275	      5.42039747	     -0.54115245	      3.76132312	      5.83995455	      8.52611996	     -7.48179694	      0.00000000	      7.02068355	      0.22907754	      4.38287474	      6.31875811	      5.11523413	     -5.93122251	      0.00000000	     -0.43213459	      0.78594153	     -1.28269013	      2.13748856	     -4.94556368	      3.95289448	     25.11248184	     81.69451199	      0.34138212	     -6.45827068	      5.91754623	     20.02321148	     69.76119591
      0.03333330	     -6.66389287	      0.23251286	     -0.29360865	     -0.05082146	      1.29676908	     -0.08204056	      6.07613965	     -0.71993264	      4.01606895	      5.36965899	      8.75609671	     -8.09034217	      0.00000000	      7.93721572	      0.51904505	      3.88465497	      6.48405808	      5.51783941	     -5.47601325	      0.00000000	      0.61206576	      0.32095358	     -0.62555505	      1.27684038	     -4.30984321	      0.69298421	     25.97341267	     82.04174099	      0.04695011	     -6.06596701	      2.94038087	     20.43849389	     70.08752680
      0.05000000	     -5.94902425	      0.37764284	     -0.25491469	     -0.05215916	      1.30653655	     -0.08037432	      5.10107430	     -0.82748396	      3.65307689	      4.56676628	      8.65573213	     -7.33076391	      0.00000000	      6.73054202	      0.67958398	      4.23155761	      5.63520802	      4.70635193	     -5.79720336	      0.00000000	     -0.46723365	     -0.03800849	     -0.41947562	      1.42345035	     -3.87915649	      0.00945726	     25.68888726	     82.48330887	      0.44828576	     -6.28271329	      2.48767397	     20.39782925	     70.48485249
      0.06666670	     -5.96567566	      0.38147072	     -0.46143586	     -0.05098494	      1.29588115	     -0.08148352	      5.07100594	     -0.82645686	      3.52877325	      4.50382188	      8.65232754	     -7.39594833	      0.00000000	      6.69347147	      0.71819995	      4.27174537	      5.59635603	      4.79552284	     -5.80277142	      0.00000000	     -0.45737310	     -0.00983246	     -0.37496381	      1.47244126	     -3.86831206	      0.00590977	     25.71186577	     82.49685206	      0.44261702	     -6.29523890	      2.47995341	     20.40287486	     70.49452392
      0.08333330	     -5.91446765	      0.53144151	     -0.55263739	     -0.04953721	      1.29424217	     -0.08236654	      5.00752779	     -0.99625966	      3.57886623	      4.55018662	      8.71318670	     -7.50895252	      0.00000000	      6.57846197	      0.93891049	      4.45263820	      5.52300339	      5.55292262	     -5.99510333	      0.00000000	     -0.43966078	     -0.07935627	     -0.04955268	      1.48095578	     -4.00797143	      0.01807817	     25.74110740	     82.63691685	      0.36460646	     -6.14525477	      2.43746725	     20.47121770	     70.59197300
      0.10000000	     -5.87654100	      0.55109597	     -0.73984582	     -0.05047976	      1.29112139	     -0.08110064	      5.12361406	     -1.01953711	      3.60109633	      4.85531223	      8.93834786	     -7.81737702	      0.00000000	      6.62188163	      0.96685014	      4.53232380	      5.81693123	      6.19512997	     -6.21797069	      0.00000000	     -0.53097198	     -0.07373457	      0.23796277	      1.51856461	     -4.11377104	      0.09964642	     25.79305073	     82.80184379	      0.51976880	     -6.05881401	      2.37439515	     20.64935413	     70.70383324
      0.11666670	     -5.98910360	      0.62962953	     -0.76485323	     -0.05340891	      1.30161941	     -0.08097696	      5.24114079	     -1.10257225	      3.63534864	      4.64484872	      8.61462606	     -7.85749949	      0.00000000	      6.82883504	      1.04186987	      4.78042805	      5.82444632	      5.95765183	     -6.06465257	      0.00000000	     -0.51512524	     -0.11788691	      0.43628684	      1.56186224	     -4.18878265	      0.20189540	     25.76618280	     82.96308364	      0.82714165	     -5.90988206	      2.33040622	     20.84249243	     70.81887744
      0.13333330	     -5.95541807	      0.65926768	     -0.89774311	     -0.05249199	      1.30158100	     -0.07990515	      5.24916336	     -1.09277900	      3.59679708	      4.56431479	      8.58598577	     -7.88078770	      0.00000000	      6.84498228	      1.03540193	      4.81452800	      5.86373142	      5.94173166	     -6.05567132	      0.00000000	     -0.47463707	     -0.10696581	      0.42478978	      1.55468485	     -4.18192861	      0.21464549	     25.75712155	     82.98053282	      0.90742278	     -5.90886977	      2.32416164	     20.87720129	     70.83161953
      0.15000000	     -5.98019005	      0.63903132	     -0.82236598	     -0.05248301	      1.30254325	     -0.07886279	      5.10390737	     -1.02163044	      3.42011260	      4.13785834	      7.88910660	     -7.89090371	      0.00000000	      7.03633376	      0.96532805	      4.77734800	      6.16453237	      5.59353645	     -6.08191726	      0.00000000	     -0.38656748	     -0.17939284	      0.63898223	      1.44738973	     -4.12003057	      0.33346180	     25.57749923	     83.14912541	      1.14343366	     -5.90782973	      2.26408636	     21.02401059	     70.95057729
      0.16666670	     -5.98605803	      0.66906878	     -0.92453767	     -0.05204899	      1.30039243	     -0.07882821	      5.12723833	     -1.01471422	      3.34557421	      4.09776123	      7.81594855	     -7.93289641	      0.00000000	      7.02245679	      0.95900171	      4.76807678	      6.19919556	      5.57328313	     -6.10609276	      0.00000000	     -0.41496505	     -0.17629509	      0.60475363	      1.35194138	     -4.16456344	      0.33987600	     25.51797837	     83.17438119	      1.17666263	     -5.91157373	      2.25583892	     21.03924382	     70.97041757
      0.18333330	     -5.96888823	      0.70188330	     -0.78870641	     -0.05400785	      1.29884556	     -0.07856288	      5.07773456	     -1.02083767	      3.11245653	      3.92770614	      7.34118765	     -8.07986509	      0.00000000	      7.18777896	      0.95560430	      4.57996134	      6.56669688	      5.34583371	     -6.30115716	      0.00000000	     -0.43112467	     -0.21092901	      0.65612448	      1.23445322	     -4.26756366	      0.38777309	     25.30508717	     83.32716768	      1.40332945	     -5.94776095	      2.20316230	     21.14734749	     71.08825878
      0.20000000	     -6.04243985	      0.69904941	     -0.68814943	     -0.05239486	      1.29939414	     -0.07851783	      5.06960034	     -1.00160971	      3.08391306	      3.57012325	      6.99647347	     -8.25465156	      0.00000000	      7.27285459	      0.91604746	      4.75685190	      6.59156384	      5.15755809	     -6.40800089	      0.00000000	     -0.35416147	     -0.24149130	      0.67081565	      1.11755389	     -4.23137621	      0.44774458	     25.06345186	     83.54875215	      1.61225956	     -5.86635091	      2.16155000	     21.28316431	     71.27133107
